<?xml version="1.0" encoding="utf-8"?>
<!-- Generator: Adobe Illustrator 23.0.4, SVG Export Plug-In . SVG Version: 6.00 Build 0)  -->
<svg version="1.1" xmlns="http://www.w3.org/2000/svg" xmlns:xlink="http://www.w3.org/1999/xlink" x="0px" y="0px"
	 viewBox="0 0 368.9 181.75" style="enable-background:new 0 0 368.9 181.75;" xml:space="preserve">
<style type="text/css">
	.st0{display:none;}
	.st1{display:inline;fill:#222222;}
	.st2{fill:#FFFFFF;}
</style>
<g id="Layer_2" class="st0">
	<rect x="-364.26" y="-20.73" class="st1" width="775.02" height="214.24"/>
</g>
<g id="Art">
	<g>
		<g>
			<g>
				<path class="st2" d="M0,113.18V1.41h41.89c21.45,0,33.68,15.08,33.68,32.68s-12.4,32.68-33.68,32.68H9.55v46.42H0z M65.52,34.09
					c0-14.08-9.89-23.96-24.63-23.96H9.55v47.93h31.34C55.63,58.05,65.52,48.16,65.52,34.09z"/>
				<path class="st2" d="M144.59,113.18v-11.9c-6.7,7.37-17.43,13.91-29.16,13.91c-16.59,0-25.47-7.71-25.47-25.97V32.25h8.71v54.96
					c0,15.75,7.88,20.11,19.6,20.11c10.39,0,20.95-6.2,26.31-13.41V32.25h8.71v80.94H144.59z"/>
				<path class="st2" d="M175.07,113.18V32.25h8.71v13.91c6.87-9.05,16.09-15.58,27.31-15.58v9.55c-1.51-0.34-2.68-0.34-4.36-0.34
					c-8.21,0-19.27,7.38-22.96,14.41v58.98H175.07z"/>
				<path class="st2" d="M216.01,72.63c0-23.46,16.59-42.4,39.04-42.4c24.63,0,38.21,19.61,38.21,42.9v2.35h-67.7
					c0.84,17.59,12.57,32.17,31.67,32.17c10.22,0,19.6-3.85,26.47-11.23l4.52,5.7c-8.04,8.38-18.26,13.07-31.67,13.07
					C232.94,115.19,216.01,97.6,216.01,72.63z M254.89,37.78c-19.1,0-28.65,16.75-29.32,30.83h58.82
					C284.21,54.87,275.16,37.78,254.89,37.78z"/>
				<path class="st2" d="M319.63,113.18v-98.7l-17.93,19.1l-5.86-6.2l24.63-25.97h8.71v111.77H319.63z"/>
			</g>
		</g>
		<g>
			<path class="st2" d="M357.2,24.52c-6.46,0-11.7-5.24-11.7-11.7c0-6.51,5.24-11.7,11.7-11.7c6.51,0,11.7,5.19,11.7,11.7
				C368.9,19.28,363.71,24.52,357.2,24.52z M357.2,3.05c-5.41,0-9.77,4.3-9.77,9.77c0,5.35,4.36,9.77,9.77,9.77s9.77-4.41,9.77-9.77
				C366.97,7.36,362.61,3.05,357.2,3.05z M360.34,19.55l-3.48-5.3h-2.15v5.3h-2.04V6.14h5.46c2.26,0,4.52,1.6,4.52,4.08
				c0,2.98-2.65,3.97-3.42,3.97l3.59,5.35H360.34z M358.14,7.85h-3.42v4.63h3.42c1.16,0,2.43-0.88,2.43-2.26
				C360.57,8.74,359.3,7.85,358.14,7.85z"/>
		</g>
	</g>
	<g>
		<path class="st2" d="M0.44,153.14v-25.26h3.56v25.2c0,8.3,4.36,13.34,12.42,13.34c8.11,0,12.42-5.04,12.42-13.34v-25.2h3.56v25.26
			c0,10.14-5.41,16.47-15.98,16.47C5.91,169.61,0.44,163.22,0.44,153.14z"/>
		<path class="st2" d="M61.53,168.88v-20.1c0-5.72-2.89-7.44-7.19-7.44c-3.81,0-7.74,2.4-9.65,5.1v22.43h-3.2v-29.69h3.2v4.49
			c2.15-2.58,6.39-5.22,10.69-5.22c6.02,0,9.34,2.95,9.34,9.65v20.77H61.53z"/>
		<path class="st2" d="M76.59,164.08v16.1h-3.2v-41h3.2v4.67c2.09-3.01,5.9-5.41,10.33-5.41c7.93,0,13.28,6.02,13.28,15.55
			c0,9.46-5.35,15.61-13.28,15.61C82.74,169.61,78.99,167.46,76.59,164.08z M96.75,154c0-7.19-3.75-12.66-10.39-12.66
			c-4.12,0-8.05,2.46-9.77,5.29v14.69c1.72,2.83,5.65,5.41,9.77,5.41C93,166.73,96.75,161.19,96.75,154z"/>
		<path class="st2" d="M107.32,168.88v-41h3.2v41H107.32z"/>
		<path class="st2" d="M139.12,168.88v-4.36c-2.46,2.71-6.39,5.1-10.7,5.1c-6.08,0-9.34-2.83-9.34-9.53v-20.9h3.2v20.16
			c0,5.78,2.89,7.38,7.19,7.38c3.81,0,7.68-2.27,9.65-4.92v-22.62h3.2v29.69H139.12z"/>
		<path class="st2" d="M151.25,176.44l1.84-2.46c2.58,3.07,5.41,4.18,9.83,4.18c5.41,0,10.14-2.71,10.14-9.53v-4.67
			c-2.09,3.01-5.9,5.53-10.33,5.53c-7.87,0-13.28-5.96-13.28-15.49c0-9.4,5.41-15.55,13.28-15.55c4.24,0,7.93,2.15,10.33,5.53v-4.79
			h3.26v29.38c0,9.1-6.15,12.35-13.4,12.35C157.95,180.92,154.75,180,151.25,176.44z M173.07,161.19v-14.44
			c-1.72-2.89-5.66-5.41-9.77-5.41c-6.58,0-10.39,5.47-10.39,12.66s3.81,12.6,10.39,12.6C167.41,166.6,171.35,164.08,173.07,161.19z
			"/>
		<path class="st2" d="M185.23,176.44l1.84-2.46c2.58,3.07,5.41,4.18,9.83,4.18c5.41,0,10.14-2.71,10.14-9.53v-4.67
			c-2.09,3.01-5.9,5.53-10.33,5.53c-7.87,0-13.28-5.96-13.28-15.49c0-9.4,5.41-15.55,13.28-15.55c4.24,0,7.93,2.15,10.33,5.53v-4.79
			h3.26v29.38c0,9.1-6.15,12.35-13.4,12.35C191.93,180.92,188.74,180,185.23,176.44z M207.05,161.19v-14.44
			c-1.72-2.89-5.66-5.41-9.77-5.41c-6.58,0-10.39,5.47-10.39,12.66s3.81,12.6,10.39,12.6C201.4,166.6,205.33,164.08,207.05,161.19z"
			/>
		<path class="st2" d="M217.33,154c0-8.6,6.08-15.55,14.32-15.55c9.04,0,14.01,7.19,14.01,15.73v0.86h-24.83
			c0.31,6.45,4.61,11.8,11.62,11.8c3.75,0,7.19-1.41,9.71-4.12l1.66,2.09c-2.95,3.07-6.7,4.79-11.62,4.79
			C223.54,169.61,217.33,163.16,217.33,154z M231.59,141.22c-7.01,0-10.51,6.15-10.76,11.31h21.57
			C242.35,147.49,239.03,141.22,231.59,141.22z"/>
		<path class="st2" d="M274.77,168.88v-4.73c-2.09,3.07-5.9,5.47-10.33,5.47c-7.87,0-13.28-6.02-13.28-15.55
			c0-9.4,5.41-15.61,13.28-15.61c4.24,0,7.93,2.15,10.33,5.53v-16.1h3.26v41H274.77z M274.77,161.44v-14.69
			c-1.72-2.89-5.59-5.41-9.77-5.41c-6.58,0-10.39,5.53-10.39,12.72s3.81,12.66,10.39,12.66
			C269.18,166.73,273.05,164.27,274.77,161.44z"/>
	</g>
</g>
</svg>
