<?xml version="1.0" encoding="utf-8"?>
<!-- Generator: Adobe Illustrator 19.2.1, SVG Export Plug-In . SVG Version: 6.00 Build 0)  -->
<svg version="1.1" id="Art" xmlns="http://www.w3.org/2000/svg" xmlns:xlink="http://www.w3.org/1999/xlink" x="0px" y="0px"
	 viewBox="0 0 49.3 34.6" style="enable-background:new 0 0 49.3 34.6;" xml:space="preserve">
<style type="text/css">
	.st0{fill:#FFFFFF;}
	.st1{fill:#8B8D90;}
	.st2{fill:#FE5000;}
</style>
<g>
	<g>
		<path class="st0" d="M20.1,5.7c-1.3,0.8-3.3-0.2-2.9-2.3c0-0.3,0.2-0.5,0.5-0.7C20,1.1,22.9,0.1,25.8,0C31.7-0.1,36.9,3.5,39,8.9
			c0.4,1.1,0.7,2.3,0.9,3.5l0.6-0.2c0.3-0.1,0.7,0,0.9,0.3s0.3,0.6,0.1,0.9l-2.4,4.4c-0.1,0.3-0.4,0.4-0.7,0.4s-0.6-0.1-0.8-0.4
			l-2.9-4.1c-0.2-0.3-0.2-0.6,0-0.9c0.2-0.3,0.5-0.4,0.9-0.3l0.4,0.1c-0.1-0.8-0.3-1.5-0.6-2.2c-1.6-3.9-5.4-6.6-9.6-6.5
			C23.8,3.9,21.8,4.6,20.1,5.7L20.1,5.7z"/>
		<path class="st1" d="M23.5,30.3c-0.3,0.2-0.4,0.4-0.4,0.8c0,0.3,0.1,0.6,0.4,0.8l4.3,2.6c0.3,0.2,0.6,0.2,0.9-0.1
			c0.3-0.2,0.4-0.6,0.3-0.9L28.8,33h10.6c2.8,0,6.5-1.8,8-4.2c3.5-5.4,1.9-11.7-2.7-14.8c-0.2-0.2-0.5-0.2-0.8-0.2
			c-2.2,0.5-2.3,2.8-0.9,3.7c0.9,0.5,1.5,1.4,1.9,2.3c2,4.7-1.4,9.2-5.9,9.2H28.8l0.1-0.5c0.1-0.3,0-0.7-0.3-0.9
			c-0.3-0.2-0.6-0.2-0.9-0.1L23.5,30.3L23.5,30.3z"/>
		<path class="st2" d="M18.5,10.1c0.3-0.1,0.4-0.4,0.5-0.7c0-0.3-0.1-0.6-0.4-0.8l-4.1-2.9c-0.3-0.2-0.6-0.2-0.9,0
			c-0.3,0.2-0.4,0.5-0.4,0.9l0.1,0.6c-0.1,0-0.3,0-0.4,0C3.9,7.2-3,16.5,1.4,26c2,4.3,6.4,6.9,11.1,6.9h8.1c0.3,0,0.6-0.1,0.8-0.3
			c1.4-1.6,0.3-3.5-1.3-3.5h-7.6c-3.2,0-6.2-1.8-7.6-4.7C1.7,17.6,6.5,11,12.9,11H13l-0.1,0.4c-0.1,0.3,0,0.7,0.2,0.9
			c0.3,0.2,0.6,0.3,0.9,0.1L18.5,10.1z"/>
	</g>
</g>
</svg>
