<svg viewBox="0 0 32.0002518 32.0002518">
    <path d="M32.0002518,1.997c0-1.102-0.8960018-1.997-2.0000019-1.997l-13,0.012
	c-0.4009991,0-0.6879997,0.132-1.0830002,0.527L0.53925,15.8970003c-0.719,0.7179995-0.719,1.8800001,0,2.5980005
	l13.1399994,12.9659996c0.7189999,0.7189999,1.8830004,0.7189999,2.6029997,0l15.25-15.328001
	c0.3959999-0.3939991,0.4680023-0.8019991,0.4680023-1.1519995V1.997z M25.012249,10c-1.6569996,0-3.0039997-1.3450003-3.0039997-3
	s1.3470001-3,3.0039997-3s3.0030003,1.3450003,3.0030003,3S26.6692505,10,25.012249,10z"></path>
</svg>
