<svg viewBox="0 0 78.7 76.4">
<path class="pstg-main" d="M16.6,43.4c2.3,2.4,5.2,4.2,8.5,5.3V27.6c0-0.5-0.4-0.9-0.9-0.9h-6.6c-0.5,0-0.9,0.4-0.9,0.9L16.6,43.4
	L16.6,43.4z"/>
<path class="pstg-main" d="M27.9,49.5c1.4,0.3,2.8,0.4,4.2,0.4c1.4,0,2.9-0.1,4.2-0.4V34.8c0-0.5-0.4-0.9-0.9-0.9h-6.6
	c-0.5,0-0.9,0.4-0.9,0.9V49.5z"/>
<path class="pstg-main" d="M75.9,63L58.2,49c3.8-5.1,6.1-11.3,6.1-18.1C64.3,13.8,49.9,0,32.2,0S0,13.9,0,31s14.4,30.9,32.1,30.9
	c7,0,13.4-2.1,18.7-5.8l14.6,17.6c0.3,0.4,0.7,0.8,1.1,1.1c3.3,2.6,8,2,10.6-1.3S79.1,65.6,75.9,63z M47.7,48.1
	c-2.2,1.8-4.8,3.3-7.7,4.2c-2.5,0.8-5.1,1.3-7.9,1.3c-2.5,0-4.9-0.4-7.1-1c-3.2-0.9-6-2.5-8.5-4.5c-5-4.2-8.2-10.3-8.2-17.1
	C8.3,18.5,19,8.4,32.1,8.4S55.9,18.5,55.9,31C55.9,37.8,52.7,44,47.7,48.1z"/>
<path class="pstg-accent" d="M39.2,48.7c3.3-1.1,6.2-3,8.5-5.3V20.2c0-0.5-0.4-0.9-0.9-0.9h-6.6c-0.5,0-0.9,0.4-0.9,0.9L39.2,48.7L39.2,48.7z"/>
</svg>
