<svg viewBox="0 0 80.4 65.2">
<g class="pstg-main">
	<path d="M16.5,20.6v-5.3c0-1.7,0.1-3.4,0.3-5.1c0-0.1,0-0.3,0.1-0.4c0.1-0.1,0.2-0.2,0.3-0.2c0.8-0.3,1.8-0.4,2.6-0.8
		c0.8-0.4,1.5-0.9,2-1.6c0.8-1.2,1.1-2.9,0.5-4.3c-0.7-1.8-2.5-3-4.4-3c-1.8,0-3.4,0.4-4.8,1.2C11.5,2,10.3,3.2,9.4,4.7
		C8.6,5.9,8.1,7.4,7.8,9.1c-0.3,1.6-0.5,4.2-0.5,8.1v4.2c0,1.6-0.1,3.5-1,4.9c-0.2,0.4-0.5,0.7-0.8,1c-0.4,0.3-1,0.4-1.5,0.6
		c-1.4,0.4-2.8,1.3-3.5,2.6c-0.7,1.3-0.7,2.9-0.1,4.3c0.3,0.8,0.9,1.4,1.5,1.9c0.5,0.3,1,0.6,1.5,0.8c0.5,0.2,1,0.2,1.4,0.5
		c0.5,0.3,0.9,0.6,1.2,1.1c1,1.4,1.3,3.3,1.3,5.1v4.1c0,4.2,0.2,7,0.6,8.8c0.4,1.9,1.2,3.5,2.1,4.7c0.9,1.2,2.1,2.1,3.5,2.8
		c3,1.4,7.2,1.4,8.6-2.2c0.5-1.2,0.4-2.3-0.1-3.5c-0.6-1.4-1.7-2.2-3.1-2.7c-0.6-0.2-1.7-0.4-2.1-0.8c-0.4-0.5-0.3-0.8-0.4-2.3
		c-0.1-0.9-0.1-1.9-0.1-2.8c0-1.8,0-3.6,0-5.4c0-4-0.3-6.9-0.9-8.6c-0.4-1.2-1.1-2.4-2-3.4c0.9-1,1.5-2.2,2-3.6
		C16.2,27.2,16.5,24.4,16.5,20.6z"/>
	<path d="M64,20.6v-5.3c0-1.7-0.1-3.4-0.3-5.1c0-0.1,0-0.3-0.1-0.4c-0.1-0.1-0.2-0.2-0.3-0.2c-0.8-0.3-1.8-0.4-2.6-0.8
		c-0.8-0.4-1.5-0.9-2-1.6c-0.8-1.2-1.1-2.9-0.5-4.3c0.7-1.8,2.5-3,4.4-3c1.8,0,3.4,0.4,4.8,1.2c1.5,0.8,2.7,1.9,3.7,3.5
		c0.7,1.3,1.3,2.8,1.6,4.4c0.3,1.6,0.5,4.2,0.5,8.1v4.2c0,1.6,0.1,3.5,1,4.9c0.2,0.4,0.5,0.7,0.8,1c0.4,0.3,1,0.4,1.5,0.6
		c1.4,0.4,2.8,1.3,3.5,2.6c0.7,1.3,0.7,2.9,0.1,4.3c-0.3,0.8-0.9,1.4-1.5,1.9c-0.5,0.3-1,0.6-1.5,0.8c-0.5,0.2-1,0.2-1.4,0.5
		c-0.5,0.3-0.9,0.6-1.2,1.1c-1,1.4-1.3,3.3-1.3,5.1v4.1c0,4.2-0.2,7-0.6,8.8c-0.4,1.9-1.2,3.5-2.1,4.7c-0.9,1.2-2.1,2.1-3.5,2.8
		c-3,1.4-7.2,1.4-8.6-2.2c-0.5-1.2-0.4-2.3,0.1-3.5c0.6-1.4,1.7-2.2,3.1-2.7c0.6-0.2,1.7-0.4,2.1-0.8c0.4-0.5,0.3-0.8,0.4-2.3
		c0.1-0.9,0.1-1.9,0.1-2.8c0-1.8,0-3.6,0-5.4c0-4,0.3-6.9,0.9-8.6c0.4-1.2,1.1-2.4,2-3.4c-0.9-1-1.5-2.2-2-3.6
		C64.3,27.2,64,24.4,64,20.6z"/>
</g>
<g class="pstg-accent">
	<path d="M34.4,50.2c3.5-0.8,5.5-3.2,5.3-6.6c-2.4-0.6-4.8-2.7-4.8-5.7v-0.1c0-3.2,2.3-5.7,5.7-5.7c3.9,0,6.2,3,6.2,7.7
		v0.3c0,5-1.5,8.8-4.1,11.3c-2.1,2.1-5.2,3.3-7.7,3.3c-1.9,0-2.6-1.1-2.6-2.3S33.3,50.4,34.4,50.2z"/>
	<path d="M40.9,12.4c3.5,0,6,2.6,6,5.9v0.1c0,3.3-2.6,5.9-6,5.9c-3.5,0-6-2.6-6-5.9v-0.1C34.9,14.9,37.5,12.4,40.9,12.4z"/>
</g>
</svg>
