<svg viewBox="0 0 100.3 86">
<g class="pstg-main">
	<path d="M98.3,36H22.9c-1.1,0-2-0.9-2-2V2c0-1.1,0.9-2,2-2h75.4c1.1,0,2,0.9,2,2v32C100.3,35.1,99.4,36,98.3,36z
		M91.7,26V10c0-0.8-0.7-1.5-1.5-1.5h-16c-0.8,0-1.5,0.7-1.5,1.5v16c0,0.8,0.7,1.5,1.5,1.5h16C91,27.5,91.7,26.8,91.7,26z"/>
	<path d="M98.3,86H22.9c-1.1,0-2-0.9-2-2V52c0-1.1,0.9-2,2-2h75.4c1.1,0,2,0.9,2,2v32C100.3,85.1,99.4,86,98.3,86z
		M91.7,76V60c0-0.8-0.7-1.5-1.5-1.5h-16c-0.8,0-1.5,0.7-1.5,1.5v16c0,0.8,0.7,1.5,1.5,1.5h16C91,77.5,91.7,76.8,91.7,76z"/>
</g>
<g class="pstg-accent">
	<path d="M10.7,84.5V51.6c0-0.8-0.7-1.5-1.5-1.5H1.5c-0.8,0-1.5,0.7-1.5,1.5v32.9C0,85.3,0.7,86,1.5,86h7.7
		C10.1,86,10.7,85.3,10.7,84.5z"/>
	<path d="M10.7,34.5V1.6c0-0.8-0.7-1.5-1.5-1.5H1.5C0.7,0.1,0,0.8,0,1.6v32.9C0,35.3,0.7,36,1.5,36h7.7
		C10.1,36,10.7,35.3,10.7,34.5z"/>
</g>
</svg>
