<svg viewBox="0 0 100 100">
<g class="pstg-main">
	<path d="M78.2,49.6h-5.3c-1,0-1.9-0.8-1.9-1.9s0.8-1.9,1.9-1.9h5.3c1,0,1.9,0.8,1.9,1.9S79.2,49.6,78.2,49.6z"/>
	<path d="M50,0C22.4,0,0,22.4,0,50c0,27.6,22.4,50,50,50c27.6,0,50-22.4,50-50C100,22.4,77.6,0,50,0z M50,12.7
		c20.6,0,37.3,16.7,37.3,37.3c0,2.5-0.3,5-0.7,7.3H65.5c-1.8,5.1-8,8.8-15.5,8.8s-13.7-3.8-15.5-8.8H13.4C13,55,12.7,52.5,12.7,50
		C12.7,29.4,29.4,12.7,50,12.7z"/>
	<path d="M68.3,39.1c-0.6,0-1.3-0.3-1.6-0.9c-0.5-0.9-0.2-2,0.7-2.6l4.6-2.6c0.9-0.5,2-0.2,2.6,0.7
		c0.5,0.9,0.2,2-0.7,2.6l-4.6,2.6C68.9,39,68.6,39.1,68.3,39.1z"/>
	<path d="M50,29.9c-1,0-1.9-0.8-1.9-1.9v-5.3c0-1,0.8-1.9,1.9-1.9c1,0,1.9,0.8,1.9,1.9V28C51.9,29,51,29.9,50,29.9z"/>
	<path d="M60.5,32.5c-0.3,0-0.6-0.1-0.9-0.3c-0.9-0.5-1.2-1.7-0.7-2.6l2.6-4.6c0.5-0.9,1.7-1.2,2.6-0.7
		c0.9,0.5,1.2,1.7,0.7,2.6l-2.6,4.6C61.8,32.2,61.2,32.5,60.5,32.5z"/>
	<path d="M26.8,49.9h-5.3c-1,0-1.9-0.8-1.9-1.9s0.8-1.9,1.9-1.9h5.3c1,0,1.9,0.8,1.9,1.9C28.7,49.1,27.9,49.9,26.8,49.9z"/>
	<path d="M31.4,40c-0.3,0-0.6-0.1-0.9-0.3l-4.6-2.6c-0.9-0.5-1.2-1.7-0.7-2.6c0.5-0.9,1.7-1.2,2.6-0.7l4.6,2.6
		c0.9,0.5,1.2,1.7,0.7,2.6C32.7,39.6,32.1,40,31.4,40z"/>
</g>
<path class="pstg-accent" d="M55.2,46.9C53.4,43.7,29.3,9.7,28.7,10c-0.6,0.3,12.9,40,14.6,43.2c1.7,3.3,5.8,4.5,9.1,2.8
		C55.7,54.3,56.9,50.2,55.2,46.9z"/>
</svg>
