<svg viewBox="0 0 69.2 73.8">
	<path class="pstg-main" d="M65.1,35.2v-7.5c0.3-6.8-2-13.1-6.8-18.1C52.4,3.5,43.8,0,34.5,0C17.6,0,3.8,12.5,3.8,27.7v7.7
		C1.4,37.8,0,41.1,0,44.6c0,6.9,5.2,12.4,12,13c0.4,1.3,1.5,2.2,2.9,2.2H15c1.7,0,3-1.4,3-3V32.6c0-1.7-1.4-3-3-3h-0.2
		c-1.4,0-2.5,0.9-2.9,2.2c-0.2,0-0.3,0-0.6,0.1v-4.1c0-11.8,9.9-20.8,23-20.8s23,9,23,20.8v4.1c-0.1,0-0.2,0-0.3,0
		c-0.4-1.3-1.5-2.2-2.9-2.2h-0.2c-1.7,0-3,1.4-3,3v24.1c0,1.7,1.4,3,3,3h0.2c1.4,0,2.5-0.9,2.9-2.2c0.2,0,0.5-0.1,0.7-0.1
		c-1.6,5.8-6.4,8.2-17,8.7c-1-1.3-2.7-2.1-4.6-2.1h-5.9c-3.1,0-5.6,2.2-5.6,4.8s2.5,4.8,5.6,4.8h5.9c2,0,3.8-1,4.9-2.4
		c14.1-0.7,21.5-6.1,22.8-16.2c3.3-2.5,5.3-6.3,5.3-10.3C69.2,41.1,67.7,37.7,65.1,35.2z"/>
<g class="pstg-accent">
	<path d="M37.4,50.4c0,0.9-0.6,1.5-1.5,1.5h-3.8c-0.9,0-1.5-0.6-1.5-1.5v-2.5c0-0.9,0.6-1.5,1.5-1.5h3.8
		c0.9,0,1.5,0.6,1.5,1.5V50.4z"/>
	<path d="M27.4,22.2c1.8-1.4,4.3-2.1,7.2-2.1c3.2,0,5.7,0.8,7.6,2.4S45,26.3,45,29c0,1.7-0.5,3.3-1.5,4.7
		s-2.3,2.6-3.8,3.3c-0.9,0.6-1.4,1.2-1.8,1.8c-0.2,0.4-0.4,1-0.4,1.7c-0.1,0.6-0.5,0.9-1.1,0.9h-4.7c-0.6,0-1.1-0.5-1.1-1.1
		c0.1-1.3,0.4-2.3,1-3.1c0.6-0.9,1.8-2.1,3.6-3.3c0.9-0.6,1.6-1.3,2.1-2.1c0.5-0.9,0.8-1.8,0.8-2.9c0-1.1-0.3-2.1-0.9-2.7
		c-0.6-0.7-1.5-1-2.6-1c-0.9,0-1.6,0.3-2.3,0.9c-0.4,0.4-0.6,0.8-0.8,1.3c-0.2,0.7-0.9,1.1-1.6,1.1l-4.3,0c-0.6,0-1-0.5-0.9-1
		C24.9,25.2,25.8,23.4,27.4,22.2z"/>
</g>
</svg>
