<svg viewBox="0 0 92.3 103.3">
	<path class="pstg-main" d="M76.8,11c2.5,0,4.5,2,4.5,4.5l0,48.9c0,2.4-2,4.4-4.4,4.4H52.7h-5.2l-3.3,4l-5.5,6.7V68.7h-11l-12.3,0
			c-2.4,0-4.4-2-4.4-4.4V15.5c0-2.5,2-4.5,4.4-4.5H76.8 M76.9,0H15.4C6.9,0,0,7,0,15.5v48.8c0,8.5,6.9,15.4,15.4,15.4c0,0,0,0,0,0
			c0,0,0,0,0,0h12.2v17.3c0,4.1,1.3,6.2,3.2,6.2c1.4,0,3.1-1.1,5-3.3l16.9-20.3h24.2c0,0,0,0,0,0c8.5,0,15.4-6.9,15.4-15.3
			c0,0,0,0,0,0V15.5C92.3,7,85.4,0,76.9,0L76.9,0z"/>
<g class="pstg-accent">
	<circle cx="25.7" cy="39.6" r="6.6"/>
	<circle cx="46.2" cy="39.6" r="6.6"/>
	<circle cx="66.7" cy="39.6" r="6.6"/>
</g>
</svg>
