<svg viewBox="0 0 150.7966614 149.7151642">
<path d="M124.1422806,149.7151642H26.6543789C11.9582129,149.7151642,0,137.7592773,0,123.060791V87.0257797
    c0.0116212-5.2434845,1.5-10.6439438,3.4736795-15.6176224l17.6466866-59.438324C24,3.8818331,34.3592339,0,43.3354454,0
    c0.0139465,0,0.0255661,0,0.0371895,0h64.0513916c0.0116196,0,0.0255661,0,0.0371857,0
    c8.9762192,0,19.705452,4.2151666,22.2150879,11.9698334l17.7460327,59.3343277
    c1.744339,5.244339,3.3627014,10.4781342,3.3743286,15.7030258v36.0536041
    C150.7966614,137.7592773,138.8384552,149.7151642,124.1422806,149.7151642z M43.3447418,14.2801275
    c-4.1650352,0-9.1780739,1.9350386-10.2963791,5.5456362L15.4016771,79.2594376
    c-1.3410864,2.0360336-1.1145763,5.3398361-1.1215496,7.784935v36.0164185c0,6.8239594,5.5502844,12.3742523,12.3742514,12.3742523
    h97.4878998c6.823967,0,12.3742599-5.550293,12.3742599-12.3742523V87.0257797
    c-0.0069733-2.426506,0.3188782-5.8296585-1.0222168-7.8703384l-17.7460251-59.3296776
    c-1.5816345-3.6105976-6.13134-5.5456362-10.2870865-5.5456362c-0.0092926,0-0.0162659-0.0046482-0.0278854,0H43.3633385
    C43.3563652,14.2801275,43.3517151,14.2801275,43.3447418,14.2801275z"/>
<path d="M136.2765808,82.3134079H12.5200853c-3.9442348,0-7.1400642-3.1981583-7.1400642-7.1400681
    s3.1958294-7.1400604,7.1400642-7.1400604h123.7564926c3.9442291,0,7.1400604,3.1981506,7.1400604,7.1400604
    S140.2208099,82.3134079,136.2765808,82.3134079z"/>
<path d="M46.1666679,119.7151642h-13c-2.7500019,0-5.0000019-2.25-5.0000019-5v-13c0-2.75,2.25-5,5.0000019-5h13
	c2.75,0,5,2.25,5,5v13C51.1666679,117.4651642,48.9166679,119.7151642,46.1666679,119.7151642z"/>
<path d="M83.1666641,119.7151642h-13c-2.75,0-5-2.25-5-5v-13c0-2.75,2.25-5,5-5h13c2.75,0,5,2.25,5,5v13
	C88.1666641,117.4651642,85.9166641,119.7151642,83.1666641,119.7151642z"/>
</svg>
