<svg viewBox="0 0 150.3512726 150.5">
<path d="M150.3512726,33.3598099c0-10.2443714-8.7020721-19.2171173-24.5045547-25.2660065
	C112.2037277,2.8746562,94.2082672,0,75.1746826,0C56.1372643,0,38.1418037,2.8746562,24.5045605,8.0938044
	C8.7020798,14.1397963,0,23.112545,0,33.3598099v83.7818298c0,10.2462997,8.7020798,19.2200089,24.5045605,25.2664871
	C38.1418037,147.6267853,56.1363106,150.5,75.1746826,150.5c19.0374146,0,37.0319138-2.874176,50.6701202-8.093811
	c15.802475-6.0484009,24.5045624-15.0211487,24.5045624-25.2645493l-0.0430603-0.5238953
	c0.0430603-0.8403473,0.0430603-1.8418274,0.0430603-3.0459061L150.3512726,33.3598099z M136.8412781,92.9374084v24.2042313
	c0,7.5670166-24.5954514,19.0077591-61.6665955,19.0077591s-61.6666031-11.4407425-61.6666031-19.0077591v-24.202301
	c3.1574345,1.9730377,6.847805,3.7724152,10.9964828,5.3595276c13.6382008,5.2177048,31.6327038,8.0909119,50.6701202,8.0909119
	c19.0402832,0,37.0357437-2.8732071,50.6701202-8.0918732h0.0009537
	C129.9953918,96.7098236,133.6847992,94.9094849,136.8412781,92.9374084z M75.1746826,94.795639
	c-17.0989418,0-33.1970749-2.4438705-45.3302307-6.8815231c-12.0575714-4.4106369-16.3363724-9.2887192-16.3363724-12.126236
	V51.5851021c3.1574345,1.9730377,6.847805,3.7724113,10.9964828,5.3609734
	c13.6391582,5.2172203,31.6336613,8.0904312,50.6701202,8.0904312c19.0383682,0,37.0338287-2.874176,50.6701202-8.0923615
	c4.1486816-1.5875969,7.8390503-3.3869705,10.9964752-5.3604927v24.2042274
	C136.8412781,83.3548965,112.2458267,94.795639,75.1746826,94.795639z M75.1746826,52.3661156
	c-37.0711479,0-61.6666031-11.4397697-61.6666031-19.0063057c0-7.5670185,24.5954571-19.0077553,61.6666031-19.0077553
	s61.6665955,11.4407358,61.6665955,19.0077553C136.8412781,40.9263458,112.2458267,52.3661156,75.1746826,52.3661156z"/>
</svg>
