<svg viewBox="0 0 150.249939 150.25">
<path d="M140.3827515,0H10.0703125C4.5316405,0,0,4.5316405,0,10.0703125v130.312439
	C0,145.8097382,4.4402618,150.25,9.8672485,150.25h130.5155029c5.4269562,0,9.8671875-4.4402313,9.8671875-9.8671875V9.8671875
	C150.249939,4.4402342,145.8097076,0,140.3827515,0z M137.249939,62.5618286c0,3.0954437-2.5093536,5.6047974-5.6047974,5.6047974
	h-11.0817795c-1.8566513,0-3.361763,1.5051117-3.361763,3.361763v6.943161c0,1.8566513,1.5051117,3.361763,3.361763,3.361763
	h10.2564011c3.5512848,0,6.4301758,2.878891,6.4301758,6.4301758v42.5561523c0,3.5513916-2.8789673,6.4303589-6.4303589,6.4303589
	H19.4303589C15.8789701,137.25,13,134.3710327,13,130.8196411V88.2636108c0-3.5513535,2.8789425-6.4302979,6.4302979-6.4302979
	h10.8871975c1.7383327,0,3.1475315-1.4091949,3.1475315-3.1475296v-7.3716278c0-1.7383347-1.4091988-3.1475296-3.1475315-3.1475296
	h-11.712698C15.5093536,68.166626,13,65.6572723,13,62.5618286V18.6047974C13,15.5093536,15.5093536,13,18.6047974,13h113.0404053
	c3.0954132,0,5.6047363,2.509326,5.6047363,5.6047363V62.5618286z"/>
<path d="M122.4687729,45.9023438h-13c-2.75,0-5-2.25-5-5v-13c0-2.75,2.25-5,5-5h13c2.75,0,5,2.25,5,5v13
	C127.4687729,43.6523438,125.2187729,45.9023438,122.4687729,45.9023438z"/>
<path d="M77.789566,105.3333359h-14.688427c-3.0319519,0-5.8581467-1.6310349-7.3734703-4.253952L43.369751,79.6773758
	c-1.5121803-2.6267853-1.5121803-5.8875351-0.0013084-8.5111084l12.3592262-21.4033203
	c1.51408-2.6267815,4.3402061-4.2578125,7.3734703-4.2578125h24.7129555c3.0307236,0,5.8555984,1.631031,7.372818,4.2578125
	l12.3566742,21.4014206c1.514679,2.6235733,1.514679,5.8862228,0,8.5130081l-3.1955643,5.0937424
	c-1.4878998,2.578804-4.3140259,4.2085266-7.34729,4.2085266H82.2921448l8.0413361-13.5702896l-7.4379959-12.8762512H68.015892
	l-7.4412079,12.8858032L77.789566,105.3333359z"/>
</svg>
