<svg viewBox="0 0 151.0241852 172.8120117">
<path d="M78.1733246,172.103653l70.8398438-40.6078949c1.2438202-0.7129974,2.0110168-2.0370789,2.0110168-3.4707642
	V45.5225601c0-1.0368767-0.5487518-1.9963188-1.4424744-2.5220375L77.4177322,0.5188103
	c-1.1750412-0.6917292-2.6328201-0.6917483-3.8078766-0.0000498L1.4416986,43.0003853
	C0.5484143,43.5262146,0,44.4854126,0,45.5219688v83.1260681c0,1.0483551,0.5608757,2.0166168,1.4702893,2.5381927
	l71.382988,40.9174805C74.500885,173.0481415,76.5257339,173.048111,78.1733246,172.103653z M68.3443832,89.5648422v58.7030563
	c0,2.2487183-2.4310608,3.6569672-4.3817291,2.5382233l-48.4214287-27.77034
	c-0.9094324-0.5215683-1.4703226-1.4898376-1.4703226-2.5382156V64.2704773c0-2.1978912,2.3327007-3.6111374,4.2808094-2.593483
	L66.77314,86.9713593C67.7389221,87.4758606,68.3443832,88.4752274,68.3443832,89.5648422z M125.4232635,50.339325
	l-48.572197,24.9922714c-0.8401413,0.4322815-1.8373184,0.4322815-2.6774597,0L25.6013603,50.3393021
	c-2.0494232-1.0545044-2.1317387-3.9544258-0.1454315-5.1234894l48.5717659-28.5874634
	c0.9159927-0.5391197,2.0523071-0.5391235,2.9683075-0.0000114l48.5726776,28.5874863
	C127.5550003,46.3848763,127.4726944,49.2848129,125.4232635,50.339325z M136.9532776,64.2704773v56.2270889
	c0,1.048378-0.5608978,2.0166473-1.4703217,2.5382156l-48.4214325,27.77034
	c-1.9506683,1.1187439-4.3817215-0.289505-4.3817215-2.5382233V89.5648422c0-1.0896149,0.6054535-2.0889816,1.5712357-2.593483
	l48.4214325-25.2943649C134.620575,60.6593399,136.9532776,62.0725861,136.9532776,64.2704773z"/>
</svg>
