<svg viewBox="0 0 150.25 150.25">
<path d="M140.3828125,0h-130.3125C4.5316772,0,0,4.5315857,0,10.0703125v130.312439
	C0,145.8096924,4.4403076,150.25,9.8672485,150.25h130.515564c5.4269409,0,9.8671875-4.4403076,9.8671875-9.8672485V9.8671875
	C150.25,4.4402466,145.8097534,0,140.3828125,0L140.3828125,0z M18.6047974,68.1666565
	C15.5093384,68.1666565,13,65.6572876,13,62.5618591V18.6047974C13,15.5093384,15.5093384,13,18.6047974,13h113.0404053
	c3.095459,0,5.6047974,2.5093384,5.6047974,5.6047974v43.9570618c0,3.0954285-2.5093384,5.6047974-5.6047974,5.6047974H18.6047974
	L18.6047974,68.1666565z M19.4303589,137.25C15.8789673,137.25,13,134.3710632,13,130.8196411V88.2636414
	c0-3.5513306,2.8789673-6.4303284,6.4303589-6.4303284h111.3892822c3.5513916,0,6.4303589,2.8789978,6.4303589,6.4303284v42.5559998
	c0,3.5514221-2.8789673,6.4303589-6.4303589,6.4303589H19.4303589L19.4303589,137.25z"/>
	<path  d="M121.5,23.1666565h-13c-2.75,0-5,2.25-5,5v13c0,2.75,2.25,5,5,5h13c2.75,0,5-2.25,5-5v-13
		C126.5,25.4166565,124.25,23.1666565,121.5,23.1666565L121.5,23.1666565z"/>
	<path d="M121.5,92.1666565h-13c-2.75,0-5,2.25-5,5v13c0,2.75,2.25,5,5,5h13c2.75,0,5-2.25,5-5v-13
		C126.5,94.4166565,124.25,92.1666565,121.5,92.1666565L121.5,92.1666565z"/>
</svg>
