<svg viewBox="0 0 170.740509 149.7302246">
<path d="M169.5677643,70.4884644L131.3981476,4.376709C129.8344879,1.668396,126.9447174,0,123.8174591,0H85.4071808
	h-0.0738525H46.9230499c-3.1272583,0-6.0170288,1.668396-7.5806885,4.376709L1.1727448,70.4884644
	c-1.5636597,2.708313-1.5636597,6.0450439,0,8.7533569l38.1696167,66.1117554
	c1.5636597,2.708313,4.4534302,4.3766479,7.5806885,4.3766479h38.4102783h0.0738525h38.4102783
	c3.1272583,0,6.0170288-1.668335,7.5806885-4.3766479l38.1696167-66.1117554
	C171.131424,76.5335083,171.131424,73.1967773,169.5677643,70.4884644z M152.2472687,79.2418213l-29.5093994,51.1117554
	c-1.5635986,2.708313-4.4533691,4.3766479-7.5806274,4.3766479h-29.750061h-0.0738525h-29.750061
	c-3.1272583,0-6.0170288-1.668335-7.5806274-4.3766479L18.4932404,79.2418213c-1.5636597-2.708313-1.5636597-6.0450439,0-8.7533569
	L48.0026398,19.376709C49.5662384,16.668396,52.4560089,15,55.5832672,15h29.750061h0.0738525h29.750061
	c3.1272583,0,6.0170288,1.668396,7.5806274,4.376709l29.5093994,51.1117554
	C153.8109283,73.1967773,153.8109283,76.5335083,152.2472687,79.2418213z"/>
<path d="M72.0775681,68.654747H59.0775719c-2.75,0-5-2.25-5-5.0000038v-13c0-2.75,2.25-5,5-5h12.9999962
	c2.75,0,5,2.25,5,5v13C77.0775681,66.404747,74.8275681,68.654747,72.0775681,68.654747z"/>
<path d="M112.0775681,68.654747h-13c-2.75,0-5-2.25-5-5.0000038v-13c0-2.75,2.25-5,5-5h13c2.75,0,5,2.25,5,5v13
	C117.0775681,66.404747,114.8275681,68.654747,112.0775681,68.654747z"/>
<path d="M72.0775681,104.654747H59.0775719c-2.75,0-5-2.25-5-5v-13c0-2.75,2.25-5,5-5h12.9999962c2.75,0,5,2.25,5,5v13
	C77.0775681,102.404747,74.8275681,104.654747,72.0775681,104.654747z"/>
<path d="M112.0775681,104.654747h-13c-2.75,0-5-2.25-5-5v-13c0-2.75,2.25-5,5-5h13c2.75,0,5,2.25,5,5v13
	C117.0775681,102.404747,114.8275681,104.654747,112.0775681,104.654747z"/>
</svg>
