<svg viewBox="0 0 512 420">
    <path d="M82.3,234.2h218.5c13.3,0,24.1-10.7,24.1-24.1c0-13.3-10.9-24.1-24.1-24.1H82.3c17.1-17.1,33-33,33-33
        c9.4-9.4,9.4-24.8,0-34.1c-4.7-4.7-10.9-7-17.1-7c-6.2,0-12.4,2.3-17.1,7l-62.6,62.6c-4.1,4.1-7.3,7.3-9.9,10l-0.1,0.1
        c-2.4,2.5-4.1,4.5-5.4,6.3c-0.3,0.1-0.4,0.4-0.4,0.6c-1.6,2.8-2.5,6.2-2.8,9.6c0,0.6,0,1.3,0,1.8c0,6.5,2.5,12.5,7,17.2l74.1,74.1
        c9.4,9.4,24.7,9.4,34.1,0c9.4-9.4,9.4-24.7,0-34.1L82.3,234.2z"/>
    <path d="M301,0.1c-51.7,0-101.5,18.9-140,53.4c-10,8.9-10.9,24.2-2,34.1c8.9,10,24.1,10.7,34.1,1.8c29.7-26.5,67.9-41.2,107.8-41.2
        c89.1,0,161.7,72.6,161.7,161.7S390.2,371.6,301,371.6c-39.9,0-78.2-14.7-107.8-41.2c-10-8.9-25.2-7.9-34.1,2
        c-8.9,10-7.9,25.2,2,34.1C199.5,401,249.2,420,301,420c115.9,0,210-94.3,210-210S416.7,0.1,301,0.1z"/>
</svg>
