<?xml version="1.0" encoding="utf-8"?>
<!-- Generator: Adobe Illustrator 23.0.4, SVG Export Plug-In . SVG Version: 6.00 Build 0)  -->
<svg version="1.1" xmlns="http://www.w3.org/2000/svg" xmlns:xlink="http://www.w3.org/1999/xlink" x="0px" y="0px"
	 viewBox="0 0 682.58 181.75" style="enable-background:new 0 0 682.58 181.75;" xml:space="preserve">
<style type="text/css">
	.st0{display:none;}
	.st1{display:inline;fill:#222222;}
	.st2{fill-rule:evenodd;clip-rule:evenodd;fill:#222222;}
	.st3{fill:#222222;}
</style>
<g id="Layer_2" class="st0">
	<rect x="-50.58" y="-20.73" class="st1" width="775.02" height="214.24"/>
</g>
<g id="Art">
	<g>
		<g>
			<path class="st2" d="M105.45,30.04c-6.99,4.3-17.2-0.93-15.31-12.16c0.25-1.48,1.21-2.75,2.46-3.57
				c12.75-8.34,27.57-13.98,42.93-14.29C166.48-0.59,194,18.59,205.3,47.05c2.28,5.75,3.88,11.85,4.69,18.17l3.07-0.87
				c1.79-0.51,3.62-0.01,4.81,1.32c1.19,1.34,1.4,3.1,0.55,4.66l-12.73,23.11c-0.77,1.4-2.17,2.25-3.84,2.34
				c-1.68,0.08-3.16-0.61-4.07-1.92l-15.05-21.68c-1.01-1.45-1-3.24,0.05-4.69c1.05-1.44,2.82-2.14,4.65-1.82l2.31,0.4
				c-0.64-4.01-1.72-7.89-3.19-11.58c-8.22-20.71-28.19-34.75-50.62-34.31C125.09,20.39,114.61,24.38,105.45,30.04L105.45,30.04z"/>
			<path class="st2" d="M123.53,159.3c-1.35,0.84-2.12,2.28-2.12,3.97c0,1.66,0.78,3.1,2.12,3.95l22.43,13.91
				c1.51,0.94,3.29,0.82,4.68-0.3c1.39-1.12,1.99-2.93,1.57-4.75l-0.62-2.7l55.55,0c14.75,0,34.02-9.7,42.16-22
				c18.64-28.16,9.96-61.56-14.37-77.61c-1.22-0.81-2.76-1.18-4.19-0.85c-11.42,2.6-12.1,14.78-4.61,19.28
				c4.61,2.77,7.91,7.37,9.98,12.34c10.38,24.84-7.55,48.6-31.06,48.6h-53.46l0.62-2.7c0.41-1.81-0.19-3.62-1.57-4.74
				c-1.4-1.12-3.17-1.24-4.68-0.3L123.53,159.3L123.53,159.3z"/>
			<path class="st2" d="M97.03,52.95c1.41-0.74,2.27-2.13,2.38-3.8c0.12-1.67-0.56-3.16-1.85-4.09l-21.43-15.4
				c-1.44-1.03-3.22-1.03-4.69-0.01c-1.46,1.03-2.18,2.78-1.89,4.63l0.53,3.37c-0.75-0.03-1.5-0.04-2.25-0.04
				c-47.42,0-83.8,49.12-60.68,99.3c10.4,22.57,33.62,36.47,58.47,36.47l42.45,0c1.54,0,3.09-0.55,4.11-1.71
				c7.59-8.63,1.63-18.54-6.63-18.54l-40.11,0c-16.87,0-32.6-9.41-39.82-24.65C8.68,92.73,34.2,57.85,67.83,57.85l0.59,0.01l-0.6,2
				c-0.54,1.78-0.06,3.63,1.24,4.84c1.32,1.22,3.09,1.45,4.65,0.62L97.03,52.95z"/>
		</g>
	</g>
	<g>
		<g>
			<g>
				<path class="st3" d="M313.68,113.18V1.41h41.89c21.45,0,33.68,15.08,33.68,32.68s-12.4,32.68-33.68,32.68h-32.34v46.42H313.68z
					 M379.2,34.09c0-14.08-9.89-23.96-24.63-23.96h-31.34v47.93h31.34C369.31,58.05,379.2,48.16,379.2,34.09z"/>
				<path class="st3" d="M458.27,113.18v-11.9c-6.7,7.37-17.43,13.91-29.16,13.91c-16.59,0-25.47-7.71-25.47-25.97V32.25h8.71v54.96
					c0,15.75,7.88,20.11,19.6,20.11c10.39,0,20.95-6.2,26.31-13.41V32.25h8.71v80.94H458.27z"/>
				<path class="st3" d="M488.75,113.18V32.25h8.71v13.91c6.87-9.05,16.09-15.58,27.31-15.58v9.55c-1.51-0.34-2.68-0.34-4.36-0.34
					c-8.21,0-19.27,7.38-22.96,14.41v58.98H488.75z"/>
				<path class="st3" d="M529.69,72.63c0-23.46,16.59-42.4,39.04-42.4c24.63,0,38.21,19.61,38.21,42.9v2.35h-67.7
					c0.84,17.59,12.57,32.17,31.67,32.17c10.22,0,19.6-3.85,26.47-11.23l4.52,5.7c-8.04,8.38-18.26,13.07-31.67,13.07
					C546.62,115.19,529.69,97.6,529.69,72.63z M568.57,37.78c-19.1,0-28.65,16.75-29.32,30.83h58.82
					C597.89,54.87,588.84,37.78,568.57,37.78z"/>
				<path class="st3" d="M633.32,113.18v-98.7l-17.93,19.1l-5.86-6.2l24.63-25.97h8.71v111.77H633.32z"/>
			</g>
		</g>
		<g>
			<path class="st3" d="M670.88,24.52c-6.46,0-11.7-5.24-11.7-11.7c0-6.51,5.24-11.7,11.7-11.7c6.51,0,11.7,5.19,11.7,11.7
				C682.58,19.28,677.39,24.52,670.88,24.52z M670.88,3.05c-5.41,0-9.77,4.3-9.77,9.77c0,5.35,4.36,9.77,9.77,9.77
				s9.77-4.41,9.77-9.77C680.65,7.36,676.29,3.05,670.88,3.05z M674.03,19.55l-3.48-5.3h-2.15v5.3h-2.04V6.14h5.46
				c2.26,0,4.52,1.6,4.52,4.08c0,2.98-2.65,3.97-3.42,3.97l3.59,5.35H674.03z M671.82,7.85h-3.42v4.63h3.42
				c1.16,0,2.43-0.88,2.43-2.26C674.25,8.74,672.98,7.85,671.82,7.85z"/>
		</g>
	</g>
	<g>
		<path class="st3" d="M314.12,153.14v-25.26h3.56v25.2c0,8.3,4.36,13.34,12.42,13.34c8.11,0,12.42-5.04,12.42-13.34v-25.2h3.56
			v25.26c0,10.14-5.41,16.47-15.98,16.47C319.59,169.61,314.12,163.22,314.12,153.14z"/>
		<path class="st3" d="M375.21,168.88v-20.1c0-5.72-2.89-7.44-7.19-7.44c-3.81,0-7.74,2.4-9.65,5.1v22.43h-3.2v-29.69h3.2v4.49
			c2.15-2.58,6.39-5.22,10.69-5.22c6.02,0,9.34,2.95,9.34,9.65v20.77H375.21z"/>
		<path class="st3" d="M390.27,164.08v16.1h-3.2v-41h3.2v4.67c2.09-3.01,5.9-5.41,10.33-5.41c7.93,0,13.28,6.02,13.28,15.55
			c0,9.46-5.35,15.61-13.28,15.61C396.42,169.61,392.67,167.46,390.27,164.08z M410.43,154c0-7.19-3.75-12.66-10.39-12.66
			c-4.12,0-8.05,2.46-9.77,5.29v14.69c1.72,2.83,5.65,5.41,9.77,5.41C406.68,166.73,410.43,161.19,410.43,154z"/>
		<path class="st3" d="M421.01,168.88v-41h3.2v41H421.01z"/>
		<path class="st3" d="M452.8,168.88v-4.36c-2.46,2.71-6.39,5.1-10.7,5.1c-6.08,0-9.34-2.83-9.34-9.53v-20.9h3.2v20.16
			c0,5.78,2.89,7.38,7.19,7.38c3.81,0,7.68-2.27,9.65-4.92v-22.62h3.2v29.69H452.8z"/>
		<path class="st3" d="M464.93,176.44l1.84-2.46c2.58,3.07,5.41,4.18,9.83,4.18c5.41,0,10.14-2.71,10.14-9.53v-4.67
			c-2.09,3.01-5.9,5.53-10.33,5.53c-7.87,0-13.28-5.96-13.28-15.49c0-9.4,5.41-15.55,13.28-15.55c4.24,0,7.93,2.15,10.33,5.53v-4.79
			h3.26v29.38c0,9.1-6.15,12.35-13.4,12.35C471.63,180.92,468.43,180,464.93,176.44z M486.75,161.19v-14.44
			c-1.72-2.89-5.66-5.41-9.77-5.41c-6.58,0-10.39,5.47-10.39,12.66s3.81,12.6,10.39,12.6C481.09,166.6,485.03,164.08,486.75,161.19z
			"/>
		<path class="st3" d="M498.92,176.44l1.84-2.46c2.58,3.07,5.41,4.18,9.83,4.18c5.41,0,10.14-2.71,10.14-9.53v-4.67
			c-2.09,3.01-5.9,5.53-10.33,5.53c-7.87,0-13.28-5.96-13.28-15.49c0-9.4,5.41-15.55,13.28-15.55c4.24,0,7.93,2.15,10.33,5.53v-4.79
			h3.26v29.38c0,9.1-6.15,12.35-13.4,12.35C505.61,180.92,502.42,180,498.92,176.44z M520.73,161.19v-14.44
			c-1.72-2.89-5.66-5.41-9.77-5.41c-6.58,0-10.39,5.47-10.39,12.66s3.81,12.6,10.39,12.6C515.08,166.6,519.01,164.08,520.73,161.19z
			"/>
		<path class="st3" d="M531.02,154c0-8.6,6.08-15.55,14.32-15.55c9.04,0,14.01,7.19,14.01,15.73v0.86h-24.83
			c0.31,6.45,4.61,11.8,11.62,11.8c3.75,0,7.19-1.41,9.71-4.12l1.66,2.09c-2.95,3.07-6.7,4.79-11.62,4.79
			C537.22,169.61,531.02,163.16,531.02,154z M545.27,141.22c-7.01,0-10.51,6.15-10.76,11.31h21.57
			C556.03,147.49,552.71,141.22,545.27,141.22z"/>
		<path class="st3" d="M588.46,168.88v-4.73c-2.09,3.07-5.9,5.47-10.33,5.47c-7.87,0-13.28-6.02-13.28-15.55
			c0-9.4,5.41-15.61,13.28-15.61c4.24,0,7.93,2.15,10.33,5.53v-16.1h3.26v41H588.46z M588.46,161.44v-14.69
			c-1.72-2.89-5.59-5.41-9.77-5.41c-6.58,0-10.39,5.53-10.39,12.72s3.81,12.66,10.39,12.66
			C582.86,166.73,586.73,164.27,588.46,161.44z"/>
	</g>
</g>
</svg>
