<svg viewBox="0 0 78.4 78.6">
<g class="pstg-alert-critical-icon">
	<path class="pstg-secondary-icon-background" d="M78.4,51.5c0,0,0,4.1-2.9,7L58.3,75.7c0,0-2.9,2.9-7,2.9H27c0,0-4.1,0-7-2.9L2.9,58.5c0,0-2.9-2.9-2.9-7V27.1 c0,0,0-4.1,2.9-7L20.1,2.9c0,0,2.9-2.9,7-2.9h24.3c0,0,4.1,0,7,2.9l17.1,17.2c0,0,2.9,2.9,2.9,7V51.5L78.4,51.5z"/>
	<path class="pstg-secondary-icon-content" d="M54.7,49.3l-10-10l10-10c1.5-1.5,1.5-3.9,0.1-5.6l-0.1-0.1c-1.5-1.5-4.2-1.5-5.7,0l-10,10l-9.9-9.9 c-1.5-1.5-4.2-1.5-5.7,0s-1.5,4.1,0,5.7l9.9,9.9l-9.9,9.9c-1.5,1.5-1.5,4.1,0,5.7c1,1,2,1.1,2.8,1.1c1.2,0,2.1-0.6,2.7-1l10-10 l10,10c1,1,2,1.1,2.8,1.1c1.2,0,2.1-0.6,2.7-1l0.2-0.1c0.7-0.7,1.2-1.8,1.2-2.8S55.5,50,54.7,49.3z"/>
</g>
</svg>
