<svg viewBox="0 0 77.8 77.9">
	<g>
		<path class="pstg-secondary-icon-background" d="M73.8,77.8H4c-2.2,0-4-1.8-4-4V4c0-2.2,1.8-4,4-4h69.8c2.2,0,4,1.8,4,4v69.8C77.8,75.9,75.9,77.8,73.8,77.8z"/>
		<g>
			<path class="pstg-secondary-icon-content" d="M31,54c0.1-0.6,0.4-1.5,0.6-2.5l3.9-14.2c0-0.2,0.1-0.3,0.1-0.5c0-0.2,0-0.3,0-0.5c0-0.8-0.3-1.4-0.8-1.6
				c-0.5-0.2-1.5-0.3-2.9-0.4v-1.7c1.2-0.1,2.9-0.3,5.2-0.5c2.3-0.3,3.8-0.5,4.8-0.7l2.7-0.5l-4.9,18c-0.4,1.5-0.7,2.6-0.8,3.2
				c-0.4,1.5-0.6,2.5-0.6,3s0.1,0.7,0.3,0.9c0.2,0.1,0.4,0.2,0.7,0.2c0.6,0,1.4-0.5,2.4-1.6c0.9-1.1,1.8-2.2,2.5-3.4l1.4,0.9
				c-2.1,3-3.6,5.1-4.7,6.1c-1.8,1.7-3.7,2.6-5.7,2.6c-1.2,0-2.2-0.4-3.1-1.1c-0.9-0.7-1.4-1.8-1.4-3.2C30.7,55.9,30.8,55.1,31,54z
				M45.9,18.2c0.8,0.8,1.2,1.8,1.2,3s-0.4,2.2-1.2,3c-0.8,0.8-1.8,1.2-3,1.2c-1.2,0-2.2-0.4-3-1.2c-0.8-0.8-1.2-1.8-1.2-3
				s0.4-2.2,1.2-3c0.8-0.8,1.8-1.2,3-1.2C44,17,45,17.4,45.9,18.2z"/>
		</g>
	</g>
</svg>
